#!OML:ASF E:\emotionWalksFemale\Project 1\Capture day 1\Session 1\Female1.ASF
:FULLY-SPECIFIED
:DEGREES
80
root 8.21804 13.9839 14.4133 -157.331 4.97891 -178.224
lowerback 22.1141 1.68807 1.05364
upperback -0.454446 2.64331 -0.190009
thorax -12.9143 1.20185 -1.69469
lowerneck -13.2125 -2.49183 -7.80377
upperneck -9.67961 -3.39045 6.93211
head -0.595823 -2.01908 3.53504
rclavicle -4.57205e-015 -7.95139e-016
rhumerus -35.1203 51.2971 -46.3052
rradius 45.7779
rwrist -8.13102
rhand -2.05581 -42.7386
rfingers 7.12502
rthumb 23.6199 -71.3078
lclavicle -4.57205e-015 -7.95139e-016
lhumerus -29.1574 -20.0907 33.1949
lradius 39.0231
lwrist 5.91682
lhand -6.02606 -44.8657
lfingers 7.12502
lthumb 19.8073 -15.855
rfemur -55.9141 8.51491 22.7076
rtibia 64.2216
rfoot -29.2585 -24.0968
rtoes -11.6774
lfemur -58.799 -5.42273 -17.9797
ltibia 66.4446
lfoot -33.7894 8.98886
ltoes -42.9447
81
root 8.21521 13.9673 14.4161 -156.858 5.07334 -178.223
lowerback 22.3746 1.68276 1.03159
upperback -0.443035 2.62702 -0.26539
thorax -13.0468 1.19113 -1.7725
lowerneck -13.2468 -2.4786 -7.86241
upperneck -10.0103 -3.3995 7.06092
head -0.696528 -2.04313 3.5964
rclavicle 2.17669e-014 -6.36111e-015
rhumerus -36.117 51.5033 -45.5343
rradius 45.6907
rwrist -7.76119
rhand -1.93358 -42.6416
rfingers 7.12502
rthumb 23.7371 -71.1956
lclavicle 2.17669e-014 -6.36111e-015
lhumerus -30.1979 -19.6983 31.7842
lradius 38.9331
lwrist 5.34995
lhand -5.97301 -44.9416
lfingers 7.12502
lthumb 19.8583 -15.9361
rfemur -56.6358 8.70314 22.5581
rtibia 64.5104
rfoot -29.4426 -24.1002
rtoes -10.9256
lfemur -59.4809 -5.32927 -17.9898
ltibia 66.7187
lfoot -33.6917 9.18093
ltoes -43.0692
82
root 8.21324 13.957 14.4156 -156.502 5.09502 -178.237
lowerback 23.0353 1.63529 0.937188
upperback -0.541136 2.54108 -0.31201
thorax -13.5417 1.14548 -1.773
lowerneck -13.5048 -2.43705 -7.67942
upperneck -10.0255 -3.37921 6.99479
head -0.665072 -2.04749 3.53561
rclavicle 1.19271e-015 9.93923e-017
rhumerus -37.4233 51.5201 -45.056
rradius 45.5072
rwrist -6.80142
rhand -1.49141 -42.4681
rfingers 7.12502
rthumb 24.1611 -70.9664
lclavicle 1.19271e-015 9.93923e-017
lhumerus -31.7335 -18.7401 30.4213
lradius 39.0074
lwrist 4.0325
lhand -5.81665 -45.0975
lfingers 7.12502
lthumb 20.0086 -16.1077
rfemur -57.1528 8.69868 22.5101
rtibia 64.7363
rfoot -29.5014 -24.1472
rtoes -11.0916
lfemur -59.9742 -5.28101 -18.0046
ltibia 66.9492
lfoot -33.7552 9.3636
ltoes -43.3255
83
root 8.2138 13.9413 14.4111 -156.178 5.11012 -178.208
lowerback 23.3153 1.561 0.940997
upperback -0.398812 2.45221 -0.372171
thorax -13.5339 1.10845 -1.82179
lowerneck -13.6301 -2.34949 -7.47376
upperneck -10.3769 -3.34056 6.853
head -0.772052 -2.06169 3.45222
rclavicle 3.10104e-014 4.37326e-015
rhumerus -38.451 51.0455 -44.4257
rradius 45.2284
rwrist -5.77419
rhand -1.35268 -42.1709
rfingers 7.12502
rthumb 24.2941 -70.6514
lclavicle 3.10104e-014 4.37326e-015
lhumerus -33.1379 -17.5504 29.0249
lradius 39.2261
lwrist 2.78691
lhand -5.98015 -45.3266
lfingers 7.12502
lthumb 19.8514 -16.3204
rfemur -57.6218 8.8489 22.4588
rtibia 64.9339
rfoot -29.4891 -24.3783
rtoes -11.3872
lfemur -60.4401 -5.21678 -17.9526
ltibia 67.1729
lfoot -33.9447 9.04737
ltoes -42.7533
84
root 8.2162 13.9283 14.406 -155.783 5.16213 -178.1
lowerback 23.696 1.55007 0.940874
upperback -0.431457 2.44216 -0.384514
thorax -13.7882 1.09861 -1.8488
lowerneck -13.4976 -2.29133 -7.44994
upperneck -10.631 -3.29381 6.83849
head -0.883458 -2.05263 3.45102
rclavicle -1.31198e-014 -1.78906e-015
rhumerus -39.6817 51.204 -43.851
rradius 44.9956
rwrist -5.03378
rhand -0.651626 -41.9989
rfingers 7.12502
rthumb 24.9661 -70.3878
lclavicle -1.31198e-014 -1.78906e-015
lhumerus -34.331 -17.6542 27.7265
lradius 39.1454
lwrist 2.57281
lhand -6.1662 -45.1203
lfingers 7.12502
lthumb 19.6726 -16.0958
rfemur -58.1562 9.07322 22.4515
rtibia 65.1142
rfoot -29.5 -24.4916
rtoes -10.8894
lfemur -60.9706 -5.08175 -17.8294
ltibia 67.3875
lfoot -34.0787 8.9854
ltoes -42.631
85
root 8.21741 13.918 14.4003 -155.317 5.15392 -178.012
lowerback 24.085 1.55472 0.969022
upperback -0.537386 2.45834 -0.37628
thorax -14.1329 1.09492 -1.8797
lowerneck -13.4466 -2.2945 -7.54986
upperneck -10.7558 -3.29401 6.93614
head -0.930343 -2.05616 3.50769
rclavicle 1.73937e-014 -6.55989e-015
rhumerus -41.0167 51.8462 -43.3359
rradius 44.7547
rwrist -4.39467
rhand 0.913664 -41.8641
rfingers 7.12502
rthumb 26.4652 -70.0362
lclavicle 1.73937e-014 -6.55989e-015
lhumerus -35.3002 -18.7192 26.5476
lradius 38.8745
lwrist 3.13453
lhand -6.15816 -44.5645
lfingers 7.12502
lthumb 19.6803 -15.5407
rfemur -58.7499 9.28057 22.4025
rtibia 65.314
rfoot -29.6546 -24.5378
rtoes -10.1258
lfemur -61.5807 -5.01563 -17.7029
ltibia 67.6051
lfoot -34.1384 9.2406
ltoes -42.9246
86
root 8.21704 13.9009 14.3917 -154.896 5.10668 -178.008
lowerback 24.4913 1.52879 0.983753
upperback -0.643794 2.42946 -0.378812
thorax -14.4908 1.07097 -1.89995
lowerneck -13.285 -2.26178 -7.63074
upperneck -10.9219 -3.25204 6.99958
head -1.01369 -2.0389 3.55303
rclavicle 2.13694e-015 3.97569e-015
rhumerus -42.8987 52.5868 -43.3167
rradius 44.6199
rwrist -4.33435
rhand 1.09605 -41.8556
rfingers 7.12502
rthumb 26.6398 -70.0013
lclavicle 2.13694e-015 3.97569e-015
lhumerus -36.4651 -19.7493 25.4681
lradius 38.8316
lwrist 3.58618
lhand -6.15757 -44.3846
lfingers 7.12502
lthumb 19.6809 -15.3608
rfemur -59.3252 9.49373 22.2517
rtibia 65.5786
rfoot -29.7218 -24.7608
rtoes -10.0838
lfemur -62.1648 -5.02439 -17.6661
ltibia 67.8556
lfoot -34.1262 9.40677
ltoes -42.9986
87
root 8.21747 13.8805 14.3816 -154.513 5.08523 -178.006
lowerback 24.875 1.49859 0.968421
upperback -0.71485 2.38889 -0.376952
thorax -14.7965 1.04657 -1.89156
lowerneck -13.1213 -2.23644 -7.70876
upperneck -11.0438 -3.21605 7.0541
head -1.08247 -2.02214 3.59373
rclavicle -1.98785e-015 4.67144e-015
rhumerus -45.011 53.3629 -43.581
rradius 44.5067
rwrist -4.80603
rhand -0.00897681 -41.985
rfingers 7.12502
rthumb 25.5818 -70.287
lclavicle -1.98785e-015 4.67144e-015
lhumerus -37.7759 -20.8281 24.4714
lradius 38.9202
lwrist 4.16197
lhand -5.59728 -43.8467
lfingers 7.12502
lthumb 20.2194 -14.8791
rfemur -59.8756 9.66899 22.1244
rtibia 65.8866
rfoot -29.792 -24.8929
rtoes -9.72638
lfemur -62.7012 -4.98894 -17.6569
ltibia 68.1222
lfoot -34.1186 9.62736
ltoes -43.3613
88
root 8.2179 13.865 14.3717 -154.067 5.10548 -178.013
lowerback 24.8812 1.4519 0.87203
upperback -0.535472 2.30425 -0.430123
thorax -14.5899 1.02409 -1.86296
lowerneck -13.3811 -4.1325 -6.90584
upperneck -11.048 -2.80178 7.15867
head -1.03374 -0.470769 3.45965
rclavicle 2.62396e-014 6.65929e-015
rhumerus -46.351 53.5575 -43.5026
rradius 44.1459
rwrist -4.67893
rhand -0.641987 -41.7545
rfingers 7.12502
rthumb 24.9753 -70.1422
lclavicle 2.62396e-014 6.65929e-015
lhumerus -39.2293 -19.2659 23.3022
lradius 38.7981
lwrist 2.38968
lhand -5.28088 -43.3246
lfingers 7.12502
lthumb 20.5235 -14.3895
rfemur -60.4919 9.79075 21.9945
rtibia 66.1935
rfoot -30.0339 -24.8884
rtoes -9.02926
lfemur -63.2832 -4.92841 -17.6512
ltibia 68.3411
lfoot -34.2605 9.64465
ltoes -43.5624
89
root 8.21894 13.8518 14.3652 -153.558 5.02363 -178.149
lowerback 24.6519 1.36488 0.824101
upperback -0.206374 2.18009 -0.547984
thorax -14.0698 0.987966 -1.9099
lowerneck -13.5304 -4.17897 -6.49559
upperneck -11.6093 -2.79327 7.02241
head -1.20587 -0.431937 3.33659
rclavicle -3.97569e-016 5.46658e-016
rhumerus -47.5075 53.1568 -43.3183
rradius 43.7575
rwrist -4.10085
rhand -0.903961 -41.3505
rfingers 7.12502
rthumb 24.7243 -69.7728
lclavicle -3.97569e-016 5.46658e-016
lhumerus -40.2509 -18.2725 22.0999
lradius 38.5699
lwrist 1.32802
lhand -5.67687 -43.2381
lfingers 7.12502
lthumb 20.143 -14.2624
rfemur -61.206 9.69853 21.8113
rtibia 66.5041
rfoot -30.1602 -24.9589
rtoes -9.00221
lfemur -63.9489 -5.00388 -17.7183
ltibia 68.5026
lfoot -34.4261 9.31657
ltoes -43.2631
90
root 8.22345 13.8415 14.361 -153.003 4.84289 -178.328
lowerback 24.7295 1.25146 0.755661
upperback -0.128003 2.0093 -0.618976
thorax -14.026 0.916943 -1.89209
lowerneck -13.9036 -4.1482 -6.09113
upperneck -11.5382 -2.77545 6.74518
head -1.1338 -0.422073 3.15921
rclavicle -3.97569e-016 -4.22417e-015
rhumerus -49.1082 52.9863 -43.4334
rradius 43.5226
rwrist -3.60437
rhand -0.781743 -41.2237
rfingers 7.12502
rthumb 24.8414 -69.6299
lclavicle -3.97569e-016 -4.22417e-015
lhumerus -41.5967 -18.3507 21.1242
lradius 38.5766
lwrist 1.19456
lhand -5.64462 -43.1975
lfingers 7.12502
lthumb 20.174 -14.2251
rfemur -61.9543 9.47633 21.6559
rtibia 66.7783
rfoot -30.1283 -25.0399
rtoes -9.20815
lfemur -64.6709 -5.10066 -17.802
ltibia 68.6302
lfoot -34.4322 9.05702
ltoes -43.0232
91
root 8.22803 13.832 14.3503 -152.469 4.75029 -178.445
lowerback 25.045 1.21041 0.623284
upperback -0.254428 1.90988 -0.630903
thorax -14.361 0.871638 -1.80779
lowerneck -15.0904 -4.13792 -5.38527
upperneck -10.3367 -2.949 5.89758
head -0.562851 -0.556249 2.70946
rclavicle 4.69629e-015 1.98785e-016
rhumerus -51.0271 52.875 -43.7465
rradius 43.226
rwrist -2.78765
rhand -0.517076 -41.01
rfingers 7.12502
rthumb 25.095 -69.3809
lclavicle 4.69629e-015 1.98785e-016
lhumerus -43.195 -18.7999 20.451
lradius 38.6495
lwrist 1.33649
lhand -5.22311 -42.6735
lfingers 7.12502
lthumb 20.579 -13.7443
rfemur -62.6341 9.43235 21.4845
rtibia 67.0116
rfoot -30.1566 -25.1491
rtoes -9.19751
lfemur -65.3268 -5.05292 -17.9016
ltibia 68.763
lfoot -34.3844 9.02353
ltoes -43.1223
92
root 8.22889 13.8223 14.3337 -152.019 4.68508 -178.49
lowerback 25.1382 1.208 0.604027
upperback -0.177193 1.91173 -0.615119
thorax -14.323 0.878838 -1.78112
lowerneck -15.4609 -4.15439 -5.15113
upperneck -10.1199 -3.00511 5.57375
head -0.440837 -0.588915 2.54975
rclavicle -2.96686e-014 1.01877e-014
rhumerus -52.7837 52.4221 -43.9597
rradius 42.8018
rwrist -1.87648
rhand -0.672077 -40.5875
rfingers 7.12502
rthumb 24.9465 -68.9792
lclavicle -2.96686e-014 1.01877e-014
lhumerus -44.5173 -19.173 20.0659
lradius 38.5385
lwrist 1.77696
lhand -5.17304 -42.413
lfingers 7.12502
lthumb 20.6271 -13.489
rfemur -63.1708 9.44087 21.3701
rtibia 67.2137
rfoot -30.2837 -25.2624
rtoes -9.02825
lfemur -65.8691 -4.99249 -17.9546
ltibia 68.9248
lfoot -34.4895 8.84184
ltoes -43.0496
93
root 8.22818 13.8086 14.3166 -151.551 4.70012 -178.419
lowerback 25.3178 1.22733 0.657568
upperback -0.171028 1.95879 -0.600162
thorax -14.4144 0.896137 -1.81829
lowerneck -13.871 -3.98375 -6.01664
upperneck -11.7363 -2.54034 6.60399
head -1.22478 -0.294921 3.10776
rclavicle 1.70458e-014 6.95746e-016
rhumerus -54.7268 52.0421 -44.4201
rradius 42.5148
rwrist -1.35543
rhand -1.03069 -40.363
rfingers 7.12502
rthumb 24.6028 -68.8019
lclavicle 1.70458e-014 6.95746e-016
lhumerus -45.9289 -19.8459 19.8608
lradius 38.332
lwrist 2.37046
lhand -5.47831 -42.5515
lfingers 7.12502
lthumb 20.3338 -13.596
rfemur -63.7181 9.47301 21.3699
rtibia 67.3873
rfoot -30.4539 -25.2348
rtoes -8.68023
lfemur -66.4502 -4.84344 -17.9212
ltibia 69.1247
lfoot -34.6021 8.71281
ltoes -43.2553
